<?xml version="1.0" standalone="no"?>
<!DOCTYPE svg PUBLIC "-//W3C//DTD SVG 20010904//EN"
 "http://www.w3.org/TR/2001/REC-SVG-20010904/DTD/svg10.dtd">
<svg version="1.0" xmlns="http://www.w3.org/2000/svg"
 width="700.000000pt" height="700.000000pt" viewBox="0 0 700.000000 700.000000"
 preserveAspectRatio="xMidYMid meet">
<metadata>
Created by potrace 1.14, written by Peter Selinger 2001-2017
</metadata>
<g transform="translate(0.000000,700.000000) scale(0.100000,-0.100000)"
fill="#000000" stroke="none">
<path d="M3409 6706 c-2 -2 -35 -6 -74 -10 -162 -14 -301 -55 -473 -138 -381
-183 -675 -542 -775 -949 -38 -153 -44 -227 -45 -602 0 -181 -3 -331 -6 -334
-3 -3 -87 -6 -188 -8 -259 -3 -356 -33 -487 -151 -100 -91 -172 -223 -188
-347 -3 -28 -6 -731 -6 -1562 0 -1672 -4 -1559 65 -1703 39 -81 147 -194 228
-239 30 -17 87 -42 125 -55 l70 -23 1845 0 1845 0 70 22 c197 63 350 224 401
423 16 59 17 200 17 1590 1 1549 0 1575 -35 1660 -35 87 -71 142 -133 206 -79
80 -130 113 -236 151 -69 24 -87 26 -267 28 -106 2 -195 5 -198 8 -3 3 -6 153
-6 334 -1 394 -13 516 -69 688 -21 66 -20 63 -78 188 -196 423 -609 730 -1086
807 -69 12 -308 24 -316 16z m274 -601 c170 -35 328 -125 453 -258 124 -132
190 -266 230 -467 4 -19 7 -187 8 -372 2 -333 1 -338 -19 -339 -99 -4 -1714
-1 -1721 4 -11 6 -11 610 0 702 9 76 57 219 98 293 78 142 200 265 341 346 45
26 160 73 202 82 141 32 281 35 408 9z m1565 -3477 c2 -1380 1 -1456 -15
-1459 -15 -3 -3428 -3 -3470 0 -17 1 -19 2907 -3 2913 5 2 792 3 1747 2 l1738
0 3 -1456z"/>
<path d="M3400 3200 c-69 -12 -152 -47 -216 -89 -354 -231 -354 -741 0 -972
107 -70 192 -94 331 -93 302 2 553 248 566 554 12 258 -150 493 -397 576 -84
28 -207 39 -284 24z"/>
</g>
</svg>
