<svg width="512" height="512" viewBox="0 0 512 512" fill="none" xmlns="http://www.w3.org/2000/svg">
<rect width="512" height="512" rx="100" fill="#29B6F6"/>
<path d="M361 186H343.5V151C343.5 102.7 304.3 63.5 256 63.5C207.7 63.5 168.5 102.7 168.5 151V186H151C131.75 186 116 201.75 116 221V396C116 415.25 131.75 431 151 431H361C380.25 431 396 415.25 396 396V221C396 201.75 380.25 186 361 186ZM203.5 151C203.5 121.95 226.95 98.5 256 98.5C285.05 98.5 308.5 121.95 308.5 151V186H203.5V151ZM361 396H151V221H361V396ZM256 343.5C275.25 343.5 291 327.75 291 308.5C291 289.25 275.25 273.5 256 273.5C236.75 273.5 221 289.25 221 308.5C221 327.75 236.75 343.5 256 343.5Z" fill="white"/>
</svg>
